<svg xmlns="http://www.w3.org/2000/svg" width="240" height="240" viewBox="0 0 240 240">
  <circle cx="17"  cy="34"  r="2.5" fill="white"/>
  <circle cx="73"  cy="9"   r="1.5" fill="white"/>
  <circle cx="142" cy="23"  r="3"   fill="white"/>
  <circle cx="201" cy="41"  r="1"   fill="white"/>
  <circle cx="229" cy="17"  r="2"   fill="white"/>
  <circle cx="56"  cy="71"  r="1"   fill="white"/>
  <circle cx="118" cy="58"  r="2"   fill="white"/>
  <circle cx="178" cy="82"  r="3.5" fill="white"/>
  <circle cx="236" cy="64"  r="1.5" fill="white"/>
  <circle cx="11"  cy="107" r="2"   fill="white"/>
  <circle cx="89"  cy="124" r="1.5" fill="white"/>
  <circle cx="152" cy="112" r="2.5" fill="white"/>
  <circle cx="207" cy="98"  r="1"   fill="white"/>
  <circle cx="37"  cy="148" r="3"   fill="white"/>
  <circle cx="101" cy="167" r="1"   fill="white"/>
  <circle cx="170" cy="153" r="2"   fill="white"/>
  <circle cx="228" cy="141" r="1.5" fill="white"/>
  <circle cx="14"  cy="188" r="1.5" fill="white"/>
  <circle cx="66"  cy="197" r="3"   fill="white"/>
  <circle cx="133" cy="183" r="1"   fill="white"/>
  <circle cx="197" cy="201" r="2.5" fill="white"/>
  <circle cx="232" cy="178" r="1"   fill="white"/>
  <circle cx="46"  cy="223" r="2"   fill="white"/>
  <circle cx="122" cy="217" r="1"   fill="white"/>
  <circle cx="177" cy="233" r="3"   fill="white"/>
  <circle cx="230" cy="219" r="1.5" fill="white"/>
  <circle cx="9"   cy="234" r="2"   fill="white"/>
  <circle cx="88"  cy="237" r="1.5" fill="white"/>
</svg>
